<svg width="23" height="25" viewBox="0 0 23 25" fill="none" xmlns="http://www.w3.org/2000/svg">
<g clip-path="url(#clip0)">
<path d="M0.69637 23.7409C0.642352 24.1862 1.00574 24.5752 1.47717 24.5752L3.06333 24.5799C3.4611 24.5799 3.79503 24.3034 3.84905 23.9284C3.88342 23.6987 3.93744 23.4081 4.01601 23.0799H19.3522C19.4307 23.4034 19.4946 23.6987 19.524 23.9284C19.578 24.3034 19.912 24.5846 20.3097 24.5799L21.8959 24.5752C22.3673 24.5752 22.7356 24.1862 22.6767 23.7409C22.4508 21.9643 21.4196 17.694 16.8379 14.0049C15.9736 14.5862 15.016 15.1393 13.9651 15.6643C14.2696 15.8799 14.5249 16.1049 14.7999 16.3299H8.53386C9.57984 15.4815 10.8419 14.6612 12.3986 13.9206C20.8499 9.91276 22.4017 3.66433 22.6865 1.41901C22.7405 0.973703 22.3772 0.58464 21.9057 0.58464L20.3147 0.579953C19.9169 0.579953 19.583 0.856515 19.5289 1.23151C19.4946 1.4612 19.4405 1.75183 19.362 2.07995H4.02092C3.94235 1.75183 3.88833 1.46589 3.85396 1.23151C3.79994 0.856515 3.46601 0.575265 3.06824 0.579953L1.48208 0.58464C1.01066 0.58464 0.642352 0.973703 0.69637 1.41901C0.951727 3.42995 2.23342 8.63307 8.54859 12.5799C2.23833 16.5268 0.951727 21.7299 0.69637 23.7409ZM11.6914 10.8737C10.4589 10.2315 9.41288 9.54245 8.53386 8.82995H14.8441C13.97 9.54245 12.924 10.2362 11.6914 10.8737ZM18.1294 5.07995C17.8446 5.56745 17.5008 6.06901 17.0981 6.57995H6.28967C5.88208 6.06901 5.53833 5.56745 5.25842 5.07995H18.1294ZM5.25351 20.0799C5.53833 19.5924 5.88208 19.0909 6.28476 18.5799H17.0589C17.4664 19.0909 17.8151 19.5924 18.0999 20.0799H5.25351Z" fill="url(#paint0_linear)"/>
</g>
<defs>
<linearGradient id="paint0_linear" x1="1" y1="1" x2="23" y2="25" gradientUnits="userSpaceOnUse">
<stop offset="0.354167" stop-color="#00A3FF"/>
<stop offset="0.59375" stop-color="#FF0099"/>
</linearGradient>
<clipPath id="clip0">
<rect width="22" height="24" fill="white" transform="translate(0.691467 0.579956)"/>
</clipPath>
</defs>
</svg>
